<svg version="1.1" xmlns="http://www.w3.org/2000/svg" xmlns:xlink="http://www.w3.org/1999/xlink" width="40px" height="40px" viewBox="0,0,256,256"><g fill="#ffffff" fill-rule="nonzero" stroke="none" stroke-width="1" stroke-linecap="butt" stroke-linejoin="miter" stroke-miterlimit="10" stroke-dasharray="" stroke-dashoffset="0" font-family="none" font-weight="none" font-size="none" text-anchor="none" style="mix-blend-mode: normal"><g transform="translate(0.57869,-1.28) scale(6.4,6.4)"><g><g><g><g><path d="M24.8,28.5h-9.7c-0.7,0 -1.4,-0.3 -1.8,-0.8c-0.5,-0.5 -0.7,-1.2 -0.7,-1.9l0.7,-9.2c0.1,-0.8 0.7,-1.4 1.5,-1.4h10.2c0.8,0 1.4,0.6 1.5,1.4l0.7,9.2c0.1,0.7 -0.2,1.4 -0.7,1.9c-0.3,0.5 -1,0.8 -1.7,0.8zM14.9,16.2c-0.3,0 -0.5,0.2 -0.5,0.5l-0.7,9.2c0,0.4 0.1,0.8 0.4,1.1c0.3,0.3 0.7,0.5 1.1,0.5h9.7c0.4,0 0.8,-0.2 1.1,-0.5c0.3,-0.3 0.4,-0.7 0.4,-1.1l-0.7,-9.2c0,-0.3 -0.2,-0.5 -0.5,-0.5z"></path></g></g><g><path d="M21.9,17.9c-0.3,0 -0.5,-0.2 -0.5,-0.5v-3.1c0,-0.8 -0.6,-1.4 -1.4,-1.4c-0.8,0 -1.4,0.6 -1.4,1.4v3.1c0,0.3 -0.2,0.5 -0.5,0.5c-0.3,0 -0.5,-0.2 -0.5,-0.5v-3.1c0,-1.3 1.1,-2.4 2.4,-2.4c1.3,0 2.4,1.1 2.4,2.4v3.1c0,0.3 -0.3,0.5 -0.5,0.5z"></path></g></g></g></g></g></svg>