<svg version="1.1" xmlns="http://www.w3.org/2000/svg" xmlns:xlink="http://www.w3.org/1999/xlink" width="40px" height="40px" viewBox="0,0,256,256"><g fill="#ffffff" fill-rule="nonzero" stroke="none" stroke-width="1" stroke-linecap="butt" stroke-linejoin="miter" stroke-miterlimit="10" stroke-dasharray="" stroke-dashoffset="0" font-family="none" font-weight="none" font-size="none" text-anchor="none" style="mix-blend-mode: normal"><g transform="translate(0.16,0) scale(6.4,6.4)"><g><g><g><g><g><path d="M24,23.5c-0.1,0 -0.3,0 -0.4,-0.1c-0.2,-0.2 -0.2,-0.5 0,-0.7l2.6,-2.6l-2.6,-2.6c-0.2,-0.2 -0.2,-0.5 0,-0.7c0.2,-0.2 0.5,-0.2 0.7,0l3,3c0.2,0.2 0.2,0.5 0,0.7l-3,3c0,0 -0.2,0 -0.3,0z"></path></g><g><path d="M26.5,20.5h-8c-0.3,0 -0.5,-0.2 -0.5,-0.5c0,-0.3 0.2,-0.5 0.5,-0.5h8c0.3,0 0.5,0.2 0.5,0.5c0,0.3 -0.2,0.5 -0.5,0.5z"></path></g></g><g><path d="M21,27.5h-6c-1.4,0 -2.5,-1.1 -2.5,-2.5v-10c0,-1.4 1.1,-2.5 2.5,-2.5h6c0.3,0 0.5,0.2 0.5,0.5c0,0.3 -0.2,0.5 -0.5,0.5h-6c-0.8,0 -1.5,0.7 -1.5,1.5v10c0,0.8 0.7,1.5 1.5,1.5h6c0.3,0 0.5,0.2 0.5,0.5c0,0.3 -0.2,0.5 -0.5,0.5z"></path></g></g></g></g></g></g></svg>