<svg version="1.1" xmlns="http://www.w3.org/2000/svg" xmlns:xlink="http://www.w3.org/1999/xlink" width="40px" height="40px" viewBox="0,0,256,256"><g fill="#ffffff" fill-rule="nonzero" stroke="none" stroke-width="1" stroke-linecap="butt" stroke-linejoin="miter" stroke-miterlimit="10" stroke-dasharray="" stroke-dashoffset="0" font-family="none" font-weight="none" font-size="none" text-anchor="none" style="mix-blend-mode: normal"><g transform="translate(-1.6,3.2) scale(6.4,6.4)"><g><g><g><path d="M20.2,20.6c-2.2,0 -4,-2 -4,-4.5c0,-2.5 1.8,-4.5 4,-4.5c2.2,0 4,2 4,4.5c0,2.5 -1.8,4.5 -4,4.5zM20.2,12.6c-1.7,0 -3,1.6 -3,3.5c0,1.9 1.3,3.5 3,3.5c1.7,0 3,-1.6 3,-3.5c0,-1.9 -1.3,-3.5 -3,-3.5z"></path></g><g><path d="M26.2,27.4c-0.3,0 -0.5,-0.2 -0.5,-0.5v-3.4c0,-1.9 -1.5,-3.4 -3.4,-3.4h-0.3c-0.3,0 -0.5,-0.2 -0.5,-0.5c0,-0.3 0.2,-0.5 0.5,-0.5h0.4c2.4,0 4.4,2 4.4,4.4v3.4c-0.1,0.3 -0.3,0.5 -0.6,0.5z"></path></g><g><path d="M14.2,27.4c-0.3,0 -0.5,-0.2 -0.5,-0.5v-3.4c0,-2.4 2,-4.4 4.4,-4.4h0.4c0.3,0 0.5,0.2 0.5,0.5c0,0.3 -0.2,0.5 -0.5,0.5h-0.4c-1.9,0 -3.4,1.5 -3.4,3.4v3.4c0,0.3 -0.2,0.5 -0.5,0.5z"></path></g></g></g></g></g></svg>